<svg xmlns="http://www.w3.org/2000/svg" version="1.1" width="100%" height="100%"
    viewBox="208.03284162160946 115.00000000000003 133.93431675678107 138.11300179724188">
    <defs>
        <linearGradient id="grad1" x1="0%" y1="0%" x2="100%" y2="0%">
            <stop offset="0%" style="stop-color:#336ff4;stop-opacity:1" />
            <stop offset="100%" style="stop-color:#e321df;stop-opacity:1" />
        </linearGradient>
    </defs>
    <g fill-rule="evenodd">
        <path
            d="M286.84998,182.50654c17.60235,0 32.09884,-13.30215 33.98072,-30.40513l0.02519,-0.1956c0.10965,1.22101 0.16744,2.45683 0.16744,3.70747c0,22.43155 -18.1847,40.61476 -40.61921,40.61476c-22.43155,0 -40.61476,-18.18321 -40.61476,-40.61476c0,-21.9959 17.4838,-39.90943 39.31077,-40.59846l0.07409,-0.01482c-15.18553,3.48372 -26.51095,17.08075 -26.51095,33.32132c0,18.87966 15.30555,34.18521 34.1867,34.18521zM323.92234,140.39441c-0.00815,-0.0086 -0.01615,-0.01734 -0.0243,-0.02593l0.00741,-0.0163c0.00563,0.01407 0.01126,0.02815 0.01689,0.04223zM225.32208,187.83496c-2.43786,-5.92603 -3.77964,-12.45619 -3.77964,-19.28108c0.00148,-20.22959 11.79797,-38.50067 28.88717,-45.91064c-10.09583,7.40938 -16.50522,21.05145 -16.50522,35.32315c0,25.76264 20.88602,46.30192 46.65015,46.30192c25.7656,0 46.65163,-20.85343 46.65163,-46.61607c0,-6.1037 -1.17181,-11.91563 -3.30383,-17.25783c11.19251,11.97031 18.04482,28.05662 18.04482,45.73661c0,36.98434 -29.98282,66.98198 -66.96716,66.98198c-36.98434,0 -66.96716,-29.95467 -66.96716,-66.93753c0,-11.25874 2.77838,-21.80623 7.68464,-31.11788l0.00445,0.08446c-0.24302,1.8078 -0.36897,3.69266 -0.36897,5.56714c0,10.26327 3.75741,21.19735 9.96914,27.12575zM250.42961,122.64324l0.00356,-0.00157h-0.00148zM263.63159,160.75514c-0.05705,-0.11706 -0.11336,-0.23472 -0.16893,-0.35267l0.10521,0.3097c0.02119,0.01437 0.04252,0.02875 0.06372,0.04297zM288.91265,176.56895c-11.11219,0 -20.71695,-6.45651 -25.28105,-15.81381c5.46874,3.67917 12.0524,6.1243 19.1375,6.1243c15.91857,0 29.31038,-11.6332 33.20471,-24.96587c0.68637,2.95798 1.05163,4.43356 1.05163,7.0805c0,15.52338 -12.58644,27.57489 -28.11279,27.57489zM315.97379,141.91356c0.00089,-0.00282 0.00163,-0.00563 0.00252,-0.00845h-0.00445c0.00059,0.00282 0.00133,0.00563 0.00193,0.00845z"
            style="fill: url(#grad1);"></path>
    </g>
</svg>